# xmcd
#
# Track frame offsets: 
#        150
#        24207
#        43882
#        64702
#        81812
#        112392
#        134520
#        155772
#        176220
#        196425
#        216417
#        233745
#        251817
#        273030
#        294782
#        317312
#
# Disc length: 4468 seconds
#
# Revision: 7
# Processed by: cddbd v1.5.2PL0 Copyright (c) Steve Scherf et al.
# Submitted via: ExactAudioCopy v0.99pb5
#
DISCID=eb117210
DTITLE=Ricardo Arjona - Adentro
DYEAR=2005
DGENRE=Latin
TTITLE0=Para bien o para mal
TTITLE1=De vez en mes
TTITLE2=Para que me quieras como quiero
TTITLE3=Pingüinos en la cama
TTITLE4=Iluso
TTITLE5=Adiós melancolía
TTITLE6=Mojado (featuring Intocable)
TTITLE7=Acompáñame a estar solo
TTITLE8=No me importa nada
TTITLE9=Laura
TTITLE10=No te cambio por nada
TTITLE11=Pa' que
TTITLE12=Ya no me acuerdo de mi
TTITLE13=A ti
TTITLE14=Bar
TTITLE15=Pingüinos en la cama (piano and strings version)
EXTD=
EXTT0=
EXTT1=
EXTT2=
EXTT3=
EXTT4=
EXTT5=
EXTT6=
EXTT7=
EXTT8=
EXTT9=
EXTT10=
EXTT11=
EXTT12=
EXTT13=
EXTT14=
EXTT15=
PLAYORDER=
